<svg width="16" height="16" viewBox="0 0 16 16" fill="none" xmlns="http://www.w3.org/2000/svg">
<g clip-path="url(#clip0_13413_18689)">
<path d="M16 7.09293H14.1912V3.44221H12.4744V1.84381H8.8848V0H7.116V1.84381H3.5264V3.44221H1.8096V7.09293H0V8.86617H1.8088V12.4126H3.5256V14.1859H7.1152V15.9992H8.884V14.1859H12.4736V12.4126H14.1904V8.86617H15.9992L16 7.09293ZM12.4224 12.4134H8.8848V10.6402H7.116V12.4134H3.5784V8.86697H5.3472V7.09373H3.5784V3.61704H7.116V5.31489H8.8848V3.61704H12.4224V7.09373H10.6536V8.86697H12.4224V12.4134Z" fill="#FAFAFA"/>
<path d="M8.864 7.09293H7.0952V8.86617H8.864V7.09293Z" fill="#FAFAFA"/>
</g>
<defs>
<clipPath id="clip0_13413_18689">
<rect width="16" height="16" fill="white"/>
</clipPath>
</defs>
</svg>
