<svg width="17" height="16" viewBox="0 0 17 16" fill="none" xmlns="http://www.w3.org/2000/svg">
<g clip-path="url(#clip0_13413_18679)">
<path d="M4.42438 13.0302H6.09813V14.704H4.42438V13.0302Z" fill="#FAFAFA"/>
<path d="M11.1206 13.0302H12.7944V14.704H11.1206V13.0302Z" fill="#FAFAFA"/>
<path d="M4.42563 1.31396H6.09938V2.98771H4.42563V1.31396Z" fill="#FAFAFA"/>
<path d="M11.1206 1.31396H12.7944V2.98771H11.1206V1.31396Z" fill="#FAFAFA"/>
<path d="M12.7981 8.01021V4.66271H11.1206V2.98771L9.44688 2.98771V4.66271H7.77312V2.98771L6.09938 2.98771L6.09937 4.66271H4.42562V8.01021H2.75188V9.68396H4.42562V11.359H6.09937V13.0315H7.77312V11.359H9.44688V13.0315H11.1206V11.359H12.7981V9.68396H14.4694V8.01021H12.7981ZM7.77187 8.01021H6.09812V6.33646H7.77187V8.01021ZM11.1194 8.01021H9.44563V6.33646H11.1194V8.01021Z" fill="#FAFAFA"/>
<path d="M14.4681 4.66146H16.1431V8.01146H14.4681V4.66146Z" fill="#FAFAFA"/>
<path d="M1.07812 4.66021H2.75312V8.01021H1.07812V4.66021Z" fill="#FAFAFA"/>
</g>
<defs>
<clipPath id="clip0_13413_18679">
<rect width="16" height="16" fill="white" transform="translate(0.615234)"/>
</clipPath>
</defs>
</svg>
