<svg width="17" height="16" viewBox="0 0 17 16" fill="none" xmlns="http://www.w3.org/2000/svg">
<g clip-path="url(#clip0_13413_18677)">
<path d="M2.30786 7.11075H0.539062V8.88844H2.30786V7.11075Z" fill="#FAFAFA"/>
<path d="M2.34786 7.11075H4.11666V1.77769H2.34786V7.11075Z" fill="#FAFAFA"/>
<path d="M4.11666 8.88925H2.34786V14.2223H4.11666V8.88925Z" fill="#FAFAFA"/>
<path d="M4.11666 0L4.11666 1.77769H7.65426V0H4.11666Z" fill="#FAFAFA"/>
<path d="M4.11666 14.2223L4.11666 16H7.65426V14.2223H4.11666Z" fill="#FAFAFA"/>
<path d="M16.5391 7.11075H14.7703V8.88844H16.5391V7.11075Z" fill="#FAFAFA"/>
<path d="M12.9615 7.11075H14.7303V1.77769H12.9615V7.11075Z" fill="#FAFAFA"/>
<path d="M12.9615 14.2223H14.7303V8.88925H12.9615V14.2223Z" fill="#FAFAFA"/>
<path d="M9.42386 0V1.77769H12.9615L12.9615 0H9.42386Z" fill="#FAFAFA"/>
<path d="M9.42386 14.2223V16H12.9615V14.2223H9.42386Z" fill="#FAFAFA"/>
</g>
<defs>
<clipPath id="clip0_13413_18677">
<rect width="16" height="16" fill="white" transform="translate(0.539062)"/>
</clipPath>
</defs>
</svg>
