<svg width="17" height="16" viewBox="0 0 17 16" fill="none" xmlns="http://www.w3.org/2000/svg">
<g clip-path="url(#clip0_13413_18688)">
<path d="M14.6832 3.58657V1.81333H12.9072V0H4.01631V1.80772H2.23863V3.56972H3.64084V3.58095H2.23863V3.56972H0.460938V12.4431H2.23863V14.2268H4.01631V16H12.8895V14.2268H11.1512V12.4431H11.1078V10.6739H14.6832V8.91188H16.4609V3.58657H14.6832ZM4.01631 10.6803H2.23863V10.6739H4.01631V10.6803ZM4.16827 9.05303H2.23863V7.12822H4.16827V9.05303ZM5.94596 5.50657H4.01631V3.58175H5.94596V5.50657ZM9.50134 3.73253H7.57169V1.80772H9.50134V3.73253ZM13.0575 5.50657H11.1279V3.58175H13.0575V5.50657Z" fill="#FAFAFA"/>
</g>
<defs>
<clipPath id="clip0_13413_18688">
<rect width="16" height="16" fill="white" transform="translate(0.460938)"/>
</clipPath>
</defs>
</svg>
