<svg width="17" height="16" viewBox="0 0 17 16" fill="none" xmlns="http://www.w3.org/2000/svg">
<g clip-path="url(#clip0_13413_18685)">
<path d="M15.9573 3.5552H15.0463V1.7776H13.2686V0H4.40108V1.7776H2.62339V3.5552H0.845703V12.444H4.40108H2.62339V14.2216H4.40108V15.9992H13.2678V14.2216H15.0455V12.444H13.2678H15.068H16.8457V3.5552H15.9573ZM4.44611 5.3328V3.5552H6.17957V1.7776H11.4909V3.5552H6.2246V5.3328H4.44691H4.44611ZM7.93475 14.2216V12.444H9.71244V14.2216H7.93475ZM11.4676 8.8888H9.71244V10.6664H7.93475V8.8888H9.68992V7.1112H11.4676V8.8888ZM13.2678 7.1104H11.4901V3.5552H13.2678V7.1104Z" fill="#FAFAFA"/>
</g>
<defs>
<clipPath id="clip0_13413_18685">
<rect width="16" height="16" fill="white" transform="translate(0.845703)"/>
</clipPath>
</defs>
</svg>
