<svg width="140" height="92" viewBox="0 0 140 92" fill="none" xmlns="http://www.w3.org/2000/svg">
<path d="M139.36 43.125C138.143 29.9808 128.389 17.7855 112.597 9.6585C111.052 8.86928 109.423 8.09886 107.757 7.3848C96.5147 2.55556 83.4563 0 70.0047 0C56.5531 0 43.4852 2.55556 32.2428 7.3848C30.5204 8.12704 28.9291 8.87868 27.4032 9.66789C11.6207 17.7855 1.86669 29.9808 0.640413 43.125C0.546805 44.0739 0.5 45.0323 0.5 45.9906C0.5 46.9489 0.546805 47.9073 0.640413 48.8562C1.85733 62.0098 11.6114 74.2051 27.4032 82.3227C28.9478 83.1307 30.5859 83.9011 32.2615 84.6152C43.5133 89.4444 56.5624 92 70.0047 92C83.4469 92 96.4867 89.4444 107.738 84.6152C109.377 83.9199 111.015 83.1495 112.597 82.3415C128.389 74.2145 138.143 62.0192 139.36 48.875C139.453 47.9355 139.5 46.9771 139.5 46.0094C139.5 45.0417 139.453 44.0833 139.36 43.1438V43.125ZM66.7284 76.1405V85.1977C51.6105 83.2717 39.4507 67.9759 38.1963 49.279H54.0724L55.2987 42.7022H38.1963C39.4507 23.9959 51.6105 8.70956 66.7284 6.79289V15.8501H73.281V6.79289C88.3988 8.71895 100.549 24.0053 101.804 42.7022H85.3472L86.3956 49.279H101.804C100.549 67.9853 88.3988 83.2717 73.281 85.1977V76.1405H66.7284ZM7.27729 42.7022C9.25244 27.8199 24.595 14.9011 46.7616 9.36724C37.8968 17.4097 32.43 29.4265 31.6437 42.7022H7.27729ZM31.6343 49.279C32.4207 62.5641 37.8874 74.5809 46.7522 82.6234C24.595 77.0895 9.25244 64.1708 7.27729 49.279H31.6343ZM108.366 49.279H132.723C130.748 64.1614 115.396 77.0895 93.2384 82.6234C102.103 74.5903 107.579 62.5735 108.366 49.279ZM108.366 42.7022C107.579 29.4171 102.103 17.4003 93.2384 9.36724C115.405 14.8917 130.748 27.8105 132.723 42.7022H108.366Z" fill="#FAFAFA"/>
<path d="M83.0163 69.5637L75.4434 22.4269H65.7174L60.8497 48.7247L56.9837 69.5637H65.2213L70.5195 40.1373L71.7739 48.875L72.3449 52.9808L74.7132 69.5637H83.0163Z" fill="#FAFAFA"/>
</svg>
