<svg width="140" height="92" viewBox="0 0 140 92" fill="none" xmlns="http://www.w3.org/2000/svg">
<path d="M139.028 43.125C137.811 29.9808 128.057 17.7855 112.265 9.6585C110.72 8.86928 109.091 8.09886 107.425 7.3848C96.1827 2.55556 83.1243 0 69.6726 0C56.221 0 43.1532 2.55556 31.9108 7.3848C30.1884 8.12704 28.597 8.87868 27.0712 9.66789C11.2887 17.7855 1.53466 29.9808 0.308382 43.125C0.214773 44.0739 0.167969 45.0323 0.167969 45.9906C0.167969 46.9489 0.214773 47.9073 0.308382 48.8562C1.5253 62.0098 11.2794 74.2051 27.0712 82.3227C28.6157 83.1307 30.2539 83.9011 31.9295 84.6152C43.1813 89.4444 56.2304 92 69.6726 92C83.1149 92 96.1546 89.4444 107.406 84.6152C109.045 83.9199 110.683 83.1495 112.265 82.3415C128.057 74.2145 137.811 62.0192 139.028 48.875C139.121 47.9355 139.168 46.9771 139.168 46.0094C139.168 45.0417 139.121 44.0833 139.028 43.1438V43.125ZM66.3963 76.1405V85.1977C51.2785 83.2716 39.1187 67.9759 37.8643 49.279H53.7404L54.9667 42.7022H37.8643C39.1187 23.9959 51.2785 8.70956 66.3963 6.79289V15.8501H72.949V6.79289C88.0668 8.71895 100.217 24.0053 101.472 42.7022H85.0152L86.0636 49.279H101.472C100.217 67.9853 88.0668 83.2716 72.949 85.1977V76.1405H66.3963ZM6.94526 42.7022C8.92041 27.8199 24.2629 14.9011 46.4295 9.36724C37.5648 17.4097 32.098 29.4265 31.3117 42.7022H6.94526ZM31.3023 49.279C32.0886 62.5641 37.5554 74.5809 46.4202 82.6234C24.2629 77.0895 8.92041 64.1708 6.94526 49.279H31.3023ZM108.034 49.279H132.391C130.416 64.1614 115.064 77.0895 92.9064 82.6234C101.771 74.5903 107.247 62.5735 108.034 49.279ZM108.034 42.7022C107.247 29.4171 101.771 17.4003 92.9064 9.36724C115.073 14.8917 130.416 27.8105 132.391 42.7022H108.034Z" fill="#09090B"/>
<path d="M82.6843 69.5637L75.1113 22.4269H65.3854L60.5177 48.7247L56.6516 69.5637H64.8892L70.1875 40.1373L71.4419 48.875L72.0129 52.9808L74.3812 69.5637H82.6843Z" fill="#09090B"/>
</svg>
