<svg width="140" height="92" viewBox="0 0 140 92" fill="none" xmlns="http://www.w3.org/2000/svg">
<path d="M139.694 43.125C138.477 29.9808 128.723 17.7855 112.931 9.6585C111.386 8.86928 109.757 8.09886 108.091 7.3848C96.8487 2.55556 83.7903 0 70.3387 0C56.8871 0 43.8192 2.55556 32.5768 7.3848C30.8544 8.12704 29.263 8.87868 27.7372 9.66789C11.9547 17.7855 2.20068 29.9808 0.974398 43.125C0.880789 44.0739 0.833984 45.0323 0.833984 45.9906C0.833984 46.9489 0.880789 47.9073 0.974398 48.8562C2.19131 62.0098 11.9454 74.2051 27.7372 82.3227C29.2818 83.1307 30.9199 83.9011 32.5955 84.6152C43.8473 89.4444 56.8964 92 70.3387 92C83.7809 92 96.8206 89.4444 108.072 84.6152C109.711 83.9199 111.349 83.1495 112.931 82.3415C128.723 74.2145 138.477 62.0192 139.694 48.875C139.787 47.9355 139.834 46.9771 139.834 46.0094C139.834 45.0417 139.787 44.0833 139.694 43.1438V43.125ZM67.0623 76.1405V85.1977C51.9445 83.2717 39.7847 67.9759 38.5303 49.279H54.4064L55.6327 42.7022H38.5303C39.7847 23.9959 51.9445 8.70956 67.0623 6.79289V15.8501H73.615V6.79289C88.7328 8.71895 100.883 24.0053 102.138 42.7022H85.6812L86.7296 49.279H102.138C100.883 67.9853 88.7328 83.2717 73.615 85.1977V76.1405H67.0623ZM7.61128 42.7022C9.58642 27.8199 24.9289 14.9011 47.0955 9.36724C38.2308 17.4097 32.764 29.4265 31.9777 42.7022H7.61128ZM31.9683 49.279C32.7547 62.5641 38.2214 74.5809 47.0862 82.6234C24.9289 77.0895 9.58642 64.1708 7.61128 49.279H31.9683ZM108.7 49.279H133.057C131.082 64.1614 115.73 77.0895 93.5724 82.6234C102.437 74.5903 107.913 62.5735 108.7 49.279ZM108.7 42.7022C107.913 29.4171 102.437 17.4003 93.5724 9.36724C115.739 14.8917 131.082 27.8105 133.057 42.7022H108.7Z" fill="#EC762E"/>
<path d="M83.3503 69.5637L75.7773 22.4269H66.0514L61.1837 48.7247L57.3176 69.5637H65.5552L70.8535 40.1373L72.1079 48.875L72.6789 52.9808L75.0472 69.5637H83.3503Z" fill="#EC762E"/>
</svg>
