<svg width="54" height="54" viewBox="0 0 54 54" fill="none" xmlns="http://www.w3.org/2000/svg">
<rect width="54" height="54" fill="#09090B"/>
<path d="M45.3578 26.25C45.0392 22.8211 42.4853 19.6397 38.3505 17.5196C37.9461 17.3137 37.5196 17.1127 37.0833 16.9265C34.1397 15.6667 30.7206 15 27.1985 15C23.6765 15 20.2549 15.6667 17.3113 16.9265C16.8603 17.1201 16.4436 17.3162 16.0441 17.5221C11.9118 19.6397 9.35784 22.8211 9.03676 26.25C9.01225 26.4975 9 26.7475 9 26.9975C9 27.2475 9.01225 27.4975 9.03676 27.7451C9.35539 31.1765 11.9093 34.3578 16.0441 36.4755C16.4485 36.6863 16.8775 36.8873 17.3162 37.0735C20.2623 38.3333 23.6789 39 27.1985 39C30.7181 39 34.1324 38.3333 37.0784 37.0735C37.5074 36.8922 37.9363 36.6912 38.3505 36.4804C42.4853 34.3603 45.0392 31.1789 45.3578 27.75C45.3823 27.5049 45.3946 27.2549 45.3946 27.0025C45.3946 26.75 45.3823 26.5 45.3578 26.2549V26.25ZM26.3407 34.8627V37.2255C22.3824 36.723 19.1985 32.7328 18.8701 27.8554H23.027L23.348 26.1397H18.8701C19.1985 21.2598 22.3824 17.2721 26.3407 16.7721V19.1348H28.0564V16.7721C32.0147 17.2745 35.1961 21.2623 35.5245 26.1397H31.2157L31.4902 27.8554H35.5245C35.1961 32.7353 32.0147 36.723 28.0564 37.2255V34.8627H26.3407ZM10.7745 26.1397C11.2917 22.2574 15.3088 18.8873 21.1127 17.4436C18.7917 19.5417 17.3603 22.6765 17.1544 26.1397H10.7745ZM17.152 27.8554C17.3578 31.3211 18.7892 34.4559 21.1103 36.5539C15.3088 35.1103 11.2917 31.7402 10.7745 27.8554H17.152ZM37.2426 27.8554H43.6201C43.1029 31.7377 39.0833 35.1103 33.2819 36.5539C35.6029 34.4583 37.0368 31.3235 37.2426 27.8554ZM37.2426 26.1397C37.0368 22.674 35.6029 19.5392 33.2819 17.4436C39.0858 18.8848 43.1029 22.2549 43.6201 26.1397H37.2426Z" fill="#EC762E"/>
<path d="M30.6054 33.1471L28.6225 20.8505H26.076L24.8015 27.7108L23.7892 33.1471H25.9461L27.3333 25.4706L27.6618 27.75L27.8113 28.8211L28.4314 33.1471H30.6054Z" fill="#EC762E"/>
</svg>
