<svg width="115" height="115" viewBox="0 0 115 115" fill="none" xmlns="http://www.w3.org/2000/svg">
<rect width="115" height="115" fill="#EC762E"/>
<path d="M91.1579 46.441C82.5292 43.6728 71.1636 42.111 59.0441 42.0085C58.6202 42.0028 58.1991 42 57.7724 42C57.3457 42 56.9246 42.0028 56.5036 42.0085C44.3841 42.111 33.0185 43.6728 24.3898 46.441C15.1124 49.4196 10 53.5249 10 57.9972C10 62.4694 15.1124 66.5775 24.3926 69.5562C33.0213 72.3272 44.3869 73.889 56.5064 73.9915C56.9246 73.9972 57.3485 74 57.7752 74C58.202 74 58.623 73.9972 59.0469 73.9915C71.1664 73.889 82.532 72.3272 91.1607 69.5562C100.441 66.5775 105.55 62.4723 105.55 57.9972C105.55 53.522 100.441 49.4168 91.1607 46.4381L91.1579 46.441ZM83.6671 69.5078C86.5149 68.3044 88.8962 66.9019 90.7141 65.3428H87.3542C83.8065 67.5989 78.7084 69.4481 72.7112 70.623C75.4765 69.2063 77.761 67.4054 79.3883 65.3428H76.8165C74.1792 68.0199 70.1422 70.1053 65.3514 71.192C67.1664 69.7013 68.6572 67.6927 69.6728 65.3428H67.4964C65.7525 68.8108 62.8137 71.2774 59.3883 71.8748V65.3428H57.4083V72.0085C53.4566 71.8578 50.0028 69.229 48.0512 65.3428H45.872C46.8905 67.6899 48.3784 69.7013 50.1963 71.192C45.4054 70.1053 41.3684 68.0228 38.7312 65.3428H36.1508C37.7809 67.4083 40.0683 69.2063 42.8336 70.623C36.8336 69.4481 31.7383 67.5989 28.1878 65.3428H24.8279C26.6486 66.9019 29.0327 68.3044 31.8748 69.5078C20.3755 67.0071 13.1494 62.9815 12.1138 58.99H19.7212V57.01H12.1138C13.1522 53.0185 20.3755 48.9929 31.8777 46.4922C29.0299 47.6956 26.6458 49.101 24.8279 50.66H28.1878C31.7383 48.4011 36.8364 46.5519 42.8364 45.377C40.0683 46.7937 37.7838 48.5974 36.1565 50.66H38.7283C41.3656 47.9772 45.4026 45.8976 50.1991 44.8108C48.3841 46.3016 46.8905 48.3101 45.872 50.66H48.0541C50.0057 46.7767 53.4566 44.1479 57.4111 43.9915V50.66H59.3912V44.1252C62.8165 44.7226 65.7553 47.192 67.4993 50.66H69.6757C68.6572 48.3129 67.1693 46.3016 65.3542 44.8108C70.1479 45.8947 74.1849 47.9772 76.825 50.66H79.3969C77.7724 48.6003 75.4822 46.7937 72.7169 45.377C78.7169 46.5519 83.8122 48.4011 87.3627 50.66H90.7226C88.9075 49.101 86.5206 47.6984 83.6728 46.4922C95.1778 48.9929 102.401 53.0185 103.442 57.01H95.7866V58.99H103.442C102.401 62.9815 95.1807 67.0071 83.6728 69.5078H83.6671Z" fill="#09090B"/>
<path d="M23.1865 52.438L21.1125 63.5731H22.8764L24.2676 55.8861L25.3657 63.5731H27.1438L25.3487 52.438H23.1865Z" fill="#09090B"/>
<path d="M54.9874 52.438L53.2122 63.5731H54.9732L56.0685 55.8861L57.1666 63.5731H58.9447L57.1496 52.438H54.9874Z" fill="#09090B"/>
<path d="M32.0484 52.4553V57.7298L30.4581 52.4866V52.4553H28.7113V63.5762H30.4581V58.6032L32.0484 63.5762H33.7952V52.4553H32.0484Z" fill="#09090B"/>
<path d="M44.4922 52.4553H42.7454V63.5762H44.4922V52.4553Z" fill="#09090B"/>
<path d="M50.4608 52.4553H47.539C47.2317 52.5093 46.9785 52.6516 46.7766 52.8849C46.5746 53.1182 46.475 53.3941 46.475 53.7099V62.3187C46.475 62.6374 46.5746 62.9133 46.7766 63.1438C46.9785 63.3771 47.2317 63.5193 47.539 63.5734H50.4608C50.768 63.5193 51.0212 63.3771 51.2232 63.1438C51.4252 62.9105 51.5248 62.6345 51.5248 62.3187V60.6203H49.778V61.8266H48.2218V54.2021H49.778V55.3941H51.5248V53.7099C51.5248 53.3913 51.4252 53.1182 51.2232 52.8849C51.0212 52.6516 50.768 52.5093 50.4608 52.4553Z" fill="#09090B"/>
<path d="M63.2178 52.4553H60.1993V54.2021H63.215C64.0315 54.2021 64.6915 54.865 64.6915 55.6787C64.6915 56.4923 64.0286 57.1552 63.215 57.1552H60.1993V63.5706H61.9461V58.8992C61.9461 58.8992 62.5037 58.8992 63.2264 58.8935C65.0016 58.8878 66.4383 57.4454 66.4383 55.673C66.4383 53.9006 64.9959 52.4525 63.2178 52.4525V52.4553Z" fill="#09090B"/>
<path d="M67.1352 52.4553V54.2021H69.1152V63.5762H70.862V54.2021H72.7312V52.4553H67.1352Z" fill="#09090B"/>
<path d="M35.4708 52.4553V54.2021H37.4509V63.5762H39.2005V54.2021H41.0697V52.4553H35.4708Z" fill="#09090B"/>
<path d="M78.2075 61.8267H75.7609V52.4212H74.0141V62.0002C74.0141 62.4013 74.1421 62.7456 74.3953 63.0329C74.6485 63.3288 74.9614 63.5052 75.3313 63.5564L75.3626 63.5735H78.603L78.6343 63.5564C79.0041 63.5023 79.317 63.3288 79.5702 63.0329C79.8234 62.7456 79.9515 62.4042 79.9515 62.0002V52.4212H78.2047V61.8267H78.2075Z" fill="#09090B"/>
<path d="M89.593 52.4553V63.5762H94.4351V61.8266H91.3398V58.0314H93.8633V56.2846H91.3398V54.2021H94.4351V52.4553H89.593Z" fill="#09090B"/>
<path d="M88.0371 55.6791C88.0371 53.901 86.5947 52.4586 84.8166 52.4586H81.7981V54.2054H84.8137C85.6302 54.2054 86.2903 54.8683 86.2903 55.682C86.2903 56.4956 85.6274 57.1585 84.8137 57.1585H81.7981V63.5739H83.5449V58.9024C83.5449 58.9024 84.1025 58.9024 84.8251 58.8968C84.8678 58.8968 84.9076 58.8911 84.9475 58.8911L86.2277 63.5739H87.8322L86.5179 58.4074H86.5122C87.4226 57.8384 88.0314 56.8285 88.0314 55.6763L88.0371 55.6791Z" fill="#09090B"/>
</svg>
