<svg width="276" height="92" viewBox="0 0 276 92" fill="none" xmlns="http://www.w3.org/2000/svg">
<path d="M234.411 12.7678C209.577 4.80939 176.866 0.318991 141.986 0.0245383C140.766 0.00817979 139.554 0 138.326 0C137.098 0 135.886 0.00817979 134.674 0.0245383C99.7934 0.318991 67.0826 4.80939 42.2486 12.7678C15.5477 21.3314 0.833984 33.1341 0.833984 45.9918C0.833984 58.8496 15.5477 70.6604 42.2568 79.224C67.0908 87.1906 99.8016 91.681 134.682 91.9755C135.886 91.9918 137.106 92 138.334 92C139.562 92 140.774 91.9918 141.994 91.9755C176.875 91.681 209.585 87.1906 234.419 79.224C261.128 70.6604 275.834 58.8578 275.834 45.9918C275.834 33.1259 261.128 21.3233 234.419 12.7596L234.411 12.7678ZM212.852 79.085C221.049 75.6252 227.902 71.5928 233.134 67.1106H223.464C213.254 73.5967 198.581 78.9132 181.321 82.2913C189.279 78.218 195.854 73.0405 200.538 67.1106H193.136C185.546 74.8073 173.927 80.8026 160.138 83.9271C165.362 79.6412 169.653 73.8666 172.576 67.1106H166.312C161.293 77.0811 152.835 84.1725 142.977 85.8901V67.1106H137.278V86.2745C125.905 85.841 115.965 78.2834 110.348 67.1106H104.076C107.007 73.8585 111.289 79.6412 116.521 83.9271C102.733 80.8026 91.1142 74.8154 83.5239 67.1106H76.0975C80.7892 73.0487 87.3723 78.218 95.331 82.2913C78.0626 78.9132 63.398 73.5967 53.1795 67.1106H43.5095C48.7498 71.5928 55.6113 75.6252 63.791 79.085C30.6954 71.8954 9.89803 60.3218 6.91762 48.8464H28.8122V43.1536H6.91762C9.90622 31.6782 30.6954 20.1046 63.7992 12.915C55.6031 16.3748 48.7416 20.4154 43.5095 24.8976H53.1795C63.398 18.4033 78.0708 13.0868 95.3391 9.70875C87.3723 13.782 80.7974 18.9676 76.1139 24.8976H83.5158C91.106 17.1846 102.725 11.2055 116.53 8.08108C111.306 12.367 107.007 18.1415 104.076 24.8976H110.356C115.973 13.7329 125.905 6.17532 137.286 5.72546V24.8976H142.985V6.10989C152.843 7.82753 161.301 14.9271 166.32 24.8976H172.584C169.653 18.1497 165.371 12.367 160.147 8.08108C173.943 11.1974 185.562 17.1846 193.16 24.8976H200.562C195.887 18.9758 189.296 13.782 181.337 9.70875C198.605 13.0868 213.27 18.4033 223.489 24.8976H233.158C227.935 20.4154 221.065 16.383 212.869 12.915C245.981 20.1046 266.77 31.6782 269.767 43.1536H247.733V48.8464H269.767C266.77 60.3218 245.989 71.8954 212.869 79.085H212.852Z" fill="#EC762E"/>
<path d="M38.7856 30.0092L32.8166 62.0227H37.8931L41.897 39.9224L45.0575 62.0227H50.175L45.0084 30.0092H38.7856Z" fill="#EC762E"/>
<path d="M130.31 30.0092L125.201 62.0227H130.269L133.422 39.9224L136.582 62.0227H141.7L136.533 30.0092H130.31Z" fill="#EC762E"/>
<path d="M64.2907 30.059V45.2233L59.7137 30.1489V30.059H54.6863V62.0316H59.7137V47.7343L64.2907 62.0316H69.3181V30.059H64.2907Z" fill="#EC762E"/>
<path d="M100.104 30.059H95.0771V62.0316H100.104V30.059Z" fill="#EC762E"/>
<path d="M117.282 30.059H108.873C107.989 30.2144 107.26 30.6233 106.679 31.294C106.098 31.9647 105.811 32.7581 105.811 33.666V58.4163C105.811 59.3324 106.098 60.1258 106.679 60.7883C107.26 61.459 107.989 61.868 108.873 62.0234H117.282C118.167 61.868 118.895 61.459 119.477 60.7883C120.058 60.1176 120.345 59.3242 120.345 58.4163V53.5333H115.317V57.0013H110.839V35.081H115.317V38.5081H120.345V33.666C120.345 32.7499 120.058 31.9647 119.477 31.294C118.895 30.6233 118.167 30.2144 117.282 30.059Z" fill="#EC762E"/>
<path d="M153.998 30.0591H145.311V35.0812H153.99C156.34 35.0812 158.239 36.9869 158.239 39.3262C158.239 41.6654 156.332 43.5712 153.99 43.5712H145.311V62.0154H150.338V48.5851C150.338 48.5851 151.943 48.5851 154.023 48.5687C159.132 48.5523 163.267 44.4055 163.267 39.3098C163.267 34.2142 159.115 30.0509 153.998 30.0509V30.0591Z" fill="#EC762E"/>
<path d="M165.272 30.059V35.081H170.971V62.0316H175.999V35.081H181.378V30.059H165.272Z" fill="#EC762E"/>
<path d="M74.1405 30.059V35.081H79.8393V62.0316H84.8749V35.081H90.2543V30.059H74.1405Z" fill="#EC762E"/>
<path d="M197.139 57.0016H190.098V29.9611H185.07V57.5006C185.07 58.6538 185.439 59.6435 186.167 60.4696C186.896 61.3203 187.797 61.8274 188.861 61.9746L188.951 62.0237H198.277L198.367 61.9746C199.432 61.8192 200.333 61.3203 201.061 60.4696C201.79 59.6435 202.158 58.662 202.158 57.5006V29.9611H197.131V57.0016H197.139Z" fill="#EC762E"/>
<path d="M229.907 30.059V62.0316H243.843V57.0013H234.935V46.0902H242.198V41.0682H234.935V35.081H243.843V30.059H229.907Z" fill="#EC762E"/>
<path d="M225.429 39.3275C225.429 34.2154 221.278 30.0686 216.161 30.0686H207.473V35.0906H216.152C218.502 35.0906 220.402 36.9964 220.402 39.3356C220.402 41.6749 218.494 43.5807 216.152 43.5807H207.473V62.0248H212.501V48.5945C212.501 48.5945 214.105 48.5945 216.185 48.5782C216.308 48.5782 216.423 48.5618 216.537 48.5618L220.222 62.0248H224.84L221.057 47.1713H221.041C223.661 45.5355 225.413 42.6319 225.413 39.3193L225.429 39.3275Z" fill="#EC762E"/>
</svg>
