<svg width="276" height="92" viewBox="0 0 276 92" fill="none" xmlns="http://www.w3.org/2000/svg">
<path d="M233.745 12.7678C208.911 4.80939 176.2 0.318991 141.32 0.0245383C140.1 0.00817979 138.888 0 137.66 0C136.432 0 135.22 0.00817979 134.008 0.0245383C99.1274 0.318991 66.4166 4.80939 41.5826 12.7678C14.8817 21.3314 0.167969 33.1341 0.167969 45.9918C0.167969 58.8496 14.8817 70.6604 41.5907 79.224C66.4248 87.1906 99.1355 91.681 134.016 91.9755C135.22 91.9918 136.44 92 137.668 92C138.896 92 140.108 91.9918 141.328 91.9755C176.209 91.681 208.919 87.1906 233.753 79.224C260.462 70.6604 275.168 58.8578 275.168 45.9918C275.168 33.1259 260.462 21.3233 233.753 12.7596L233.745 12.7678ZM212.186 79.085C220.383 75.6252 227.236 71.5928 232.468 67.1106H222.798C212.588 73.5967 197.915 78.9132 180.655 82.2913C188.613 78.218 195.188 73.0405 199.872 67.1106H192.47C184.88 74.8073 173.261 80.8026 159.472 83.9271C164.696 79.6412 168.987 73.8666 171.91 67.1106H165.646C160.627 77.0811 152.169 84.1725 142.311 85.8901V67.1106H136.612V86.2745C125.239 85.841 115.299 78.2834 109.682 67.1106H103.41C106.341 73.8585 110.623 79.6412 115.855 83.9271C102.067 80.8026 90.4481 74.8154 82.8579 67.1106H75.4315C80.1232 73.0487 86.7063 78.218 94.6649 82.2913C77.3966 78.9132 62.732 73.5967 52.5134 67.1106H42.8435C48.0838 71.5928 54.9453 75.6252 63.125 79.085C30.0294 71.8954 9.23201 60.3218 6.2516 48.8464H28.1461V43.1536H6.2516C9.2402 31.6782 30.0294 20.1046 63.1332 12.915C54.9371 16.3748 48.0756 20.4154 42.8435 24.8976H52.5134C62.732 18.4033 77.4048 13.0868 94.6731 9.70875C86.7063 13.782 80.1313 18.9676 75.4479 24.8976H82.8497C90.44 17.1846 102.059 11.2055 115.864 8.08108C110.64 12.367 106.341 18.1415 103.41 24.8976H109.69C115.307 13.7329 125.239 6.17532 136.62 5.72546V24.8976H142.319V6.10989C152.177 7.82753 160.635 14.9271 165.654 24.8976H171.918C168.987 18.1497 164.705 12.367 159.481 8.08108C173.277 11.1974 184.896 17.1846 192.494 24.8976H199.896C195.221 18.9758 188.63 13.782 180.671 9.70875C197.939 13.0868 212.604 18.4033 222.823 24.8976H232.492C227.269 20.4154 220.399 16.383 212.203 12.915C245.315 20.1046 266.104 31.6782 269.101 43.1536H247.067V48.8464H269.101C266.104 60.3218 245.323 71.8954 212.203 79.085H212.186Z" fill="#09090B"/>
<path d="M38.1195 30.0092L32.1505 62.0227H37.2271L41.231 39.9224L44.3915 62.0227H49.509L44.3424 30.0092H38.1195Z" fill="#09090B"/>
<path d="M129.644 30.0092L124.535 62.0227H129.603L132.756 39.9224L135.916 62.0227H141.034L135.867 30.0092H129.644Z" fill="#09090B"/>
<path d="M63.6247 30.059V45.2233L59.0477 30.1489V30.059H54.0203V62.0316H59.0477V47.7343L63.6247 62.0316H68.6521V30.059H63.6247Z" fill="#09090B"/>
<path d="M99.4385 30.059H94.4111V62.0316H99.4385V30.059Z" fill="#09090B"/>
<path d="M116.616 30.059H108.207C107.323 30.2144 106.594 30.6233 106.013 31.294C105.432 31.9647 105.145 32.7581 105.145 33.666V58.4163C105.145 59.3324 105.432 60.1258 106.013 60.7883C106.594 61.459 107.323 61.868 108.207 62.0234H116.616C117.501 61.868 118.229 61.459 118.811 60.7883C119.392 60.1176 119.679 59.3242 119.679 58.4163V53.5333H114.651V57.0013H110.173V35.081H114.651V38.5081H119.679V33.666C119.679 32.7499 119.392 31.9647 118.811 31.294C118.229 30.6233 117.501 30.2144 116.616 30.059Z" fill="#09090B"/>
<path d="M153.332 30.0591H144.645V35.0812H153.324C155.674 35.0812 157.573 36.9869 157.573 39.3262C157.573 41.6654 155.666 43.5712 153.324 43.5712H144.645V62.0154H149.672V48.5851C149.672 48.5851 151.277 48.5851 153.357 48.5687C158.466 48.5523 162.601 44.4055 162.601 39.3098C162.601 34.2142 158.449 30.0509 153.332 30.0509V30.0591Z" fill="#09090B"/>
<path d="M164.606 30.059V35.081H170.305V62.0316H175.333V35.081H180.712V30.059H164.606Z" fill="#09090B"/>
<path d="M73.4745 30.059V35.081H79.1733V62.0316H84.2088V35.081H89.5883V30.059H73.4745Z" fill="#09090B"/>
<path d="M196.473 57.0016H189.432V29.9611H184.404V57.5006C184.404 58.6538 184.773 59.6435 185.501 60.4696C186.23 61.3203 187.131 61.8274 188.195 61.9746L188.285 62.0237H197.611L197.701 61.9746C198.766 61.8192 199.667 61.3203 200.395 60.4696C201.124 59.6435 201.492 58.662 201.492 57.5006V29.9611H196.465V57.0016H196.473Z" fill="#09090B"/>
<path d="M229.241 30.059V62.0316H243.177V57.0013H234.269V46.0902H241.531V41.0682H234.269V35.081H243.177V30.059H229.241Z" fill="#09090B"/>
<path d="M224.763 39.3275C224.763 34.2154 220.612 30.0686 215.495 30.0686H206.807V35.0906H215.486C217.836 35.0906 219.736 36.9964 219.736 39.3356C219.736 41.6749 217.828 43.5807 215.486 43.5807H206.807V62.0248H211.835V48.5945C211.835 48.5945 213.439 48.5945 215.519 48.5782C215.642 48.5782 215.757 48.5618 215.871 48.5618L219.556 62.0248H224.174L220.391 47.1713H220.375C222.995 45.5355 224.747 42.6319 224.747 39.3193L224.763 39.3275Z" fill="#09090B"/>
</svg>
