<svg width="276" height="92" viewBox="0 0 276 92" fill="none" xmlns="http://www.w3.org/2000/svg">
<path d="M234.077 12.7678C209.243 4.80939 176.532 0.318991 141.652 0.0245383C140.432 0.00817979 139.22 0 137.992 0C136.764 0 135.552 0.00817979 134.34 0.0245383C99.4594 0.318991 66.7486 4.80939 41.9146 12.7678C15.2137 21.3314 0.5 33.1341 0.5 45.9918C0.5 58.8496 15.2137 70.6604 41.9228 79.224C66.7568 87.1906 99.4676 91.681 134.348 91.9755C135.552 91.9918 136.772 92 138 92C139.228 92 140.44 91.9918 141.66 91.9755C176.541 91.681 209.251 87.1906 234.085 79.224C260.794 70.6604 275.5 58.8578 275.5 45.9918C275.5 33.1259 260.794 21.3233 234.085 12.7596L234.077 12.7678ZM212.518 79.085C220.715 75.6252 227.568 71.5928 232.8 67.1106H223.13C212.92 73.5967 198.247 78.9132 180.987 82.2913C188.945 78.218 195.52 73.0405 200.204 67.1106H192.802C185.212 74.8073 173.593 80.8026 159.804 83.9271C165.028 79.6412 169.319 73.8666 172.242 67.1106H165.978C160.959 77.0811 152.501 84.1725 142.643 85.8901V67.1106H136.944V86.2745C125.571 85.841 115.631 78.2834 110.014 67.1106H103.742C106.673 73.8585 110.955 79.6412 116.187 83.9271C102.399 80.8026 90.7802 74.8154 83.19 67.1106H75.7635C80.4552 73.0487 87.0383 78.218 94.997 82.2913C77.7286 78.9132 63.064 73.5967 52.8455 67.1106H43.1755C48.4158 71.5928 55.2773 75.6252 63.457 79.085C30.3614 71.8954 9.56404 60.3218 6.58364 48.8464H28.4782V43.1536H6.58364C9.57223 31.6782 30.3614 20.1046 63.4652 12.915C55.2691 16.3748 48.4076 20.4154 43.1755 24.8976H52.8455C63.064 18.4033 77.7368 13.0868 95.0051 9.70875C87.0383 13.782 80.4634 18.9676 75.7799 24.8976H83.1818C90.772 17.1846 102.391 11.2055 116.196 8.08108C110.972 12.367 106.673 18.1415 103.742 24.8976H110.022C115.639 13.7329 125.571 6.17532 136.952 5.72546V24.8976H142.651V6.10989C152.509 7.82753 160.967 14.9271 165.986 24.8976H172.25C169.319 18.1497 165.037 12.367 159.813 8.08108C173.609 11.1974 185.228 17.1846 192.826 24.8976H200.228C195.553 18.9758 188.962 13.782 181.003 9.70875C198.271 13.0868 212.936 18.4033 223.155 24.8976H232.824C227.601 20.4154 220.731 16.383 212.535 12.915C245.647 20.1046 266.436 31.6782 269.433 43.1536H247.399V48.8464H269.433C266.436 60.3218 245.655 71.8954 212.535 79.085H212.518Z" fill="#FAFAFA"/>
<path d="M38.4516 30.0092L32.4826 62.0227H37.5591L41.563 39.9224L44.7235 62.0227H49.841L44.6744 30.0092H38.4516Z" fill="#FAFAFA"/>
<path d="M129.976 30.0092L124.867 62.0227H129.935L133.088 39.9224L136.248 62.0227H141.366L136.199 30.0092H129.976Z" fill="#FAFAFA"/>
<path d="M63.9567 30.059V45.2233L59.3797 30.1489V30.059H54.3523V62.0316H59.3797V47.7343L63.9567 62.0316H68.9841V30.059H63.9567Z" fill="#FAFAFA"/>
<path d="M99.7705 30.059H94.7431V62.0316H99.7705V30.059Z" fill="#FAFAFA"/>
<path d="M116.948 30.059H108.539C107.655 30.2144 106.926 30.6233 106.345 31.294C105.764 31.9647 105.477 32.7581 105.477 33.666V58.4163C105.477 59.3324 105.764 60.1258 106.345 60.7883C106.926 61.459 107.655 61.868 108.539 62.0234H116.948C117.833 61.868 118.562 61.459 119.143 60.7883C119.724 60.1176 120.011 59.3242 120.011 58.4163V53.5333H114.983V57.0013H110.505V35.081H114.983V38.5081H120.011V33.666C120.011 32.7499 119.724 31.9647 119.143 31.294C118.562 30.6233 117.833 30.2144 116.948 30.059Z" fill="#FAFAFA"/>
<path d="M153.664 30.0591H144.977V35.0812H153.656C156.006 35.0812 157.905 36.9869 157.905 39.3262C157.905 41.6654 155.998 43.5712 153.656 43.5712H144.977V62.0154H150.004V48.5851C150.004 48.5851 151.609 48.5851 153.689 48.5687C158.798 48.5523 162.933 44.4055 162.933 39.3098C162.933 34.2142 158.781 30.0509 153.664 30.0509V30.0591Z" fill="#FAFAFA"/>
<path d="M164.938 30.059V35.081H170.637V62.0316H175.665V35.081H181.044V30.059H164.938Z" fill="#FAFAFA"/>
<path d="M73.8065 30.059V35.081H79.5053V62.0316H84.5409V35.081H89.9204V30.059H73.8065Z" fill="#FAFAFA"/>
<path d="M196.805 57.0016H189.764V29.9611H184.736V57.5006C184.736 58.6538 185.105 59.6435 185.833 60.4696C186.562 61.3203 187.463 61.8274 188.527 61.9746L188.617 62.0237H197.943L198.033 61.9746C199.098 61.8192 199.999 61.3203 200.727 60.4696C201.456 59.6435 201.824 58.662 201.824 57.5006V29.9611H196.797V57.0016H196.805Z" fill="#FAFAFA"/>
<path d="M229.573 30.059V62.0316H243.509V57.0013H234.601V46.0902H241.864V41.0682H234.601V35.081H243.509V30.059H229.573Z" fill="#FAFAFA"/>
<path d="M225.095 39.3275C225.095 34.2154 220.944 30.0686 215.827 30.0686H207.139V35.0906H215.818C218.168 35.0906 220.068 36.9964 220.068 39.3356C220.068 41.6749 218.16 43.5807 215.818 43.5807H207.139V62.0248H212.167V48.5945C212.167 48.5945 213.771 48.5945 215.851 48.5782C215.974 48.5782 216.089 48.5618 216.203 48.5618L219.888 62.0248H224.506L220.723 47.1713H220.707C223.327 45.5355 225.079 42.6319 225.079 39.3193L225.095 39.3275Z" fill="#FAFAFA"/>
</svg>
